<svg preserveAspectRatio="none" overflow="visible" style="display: block;" width="24" height="11.3386" viewBox="0 0 24 11.3386" fill="none" xmlns="http://www.w3.org/2000/svg">
<g id="Arrows">
<path id="Vector" d="M16.5882 0.0222358C16.5882 0.767146 17.1605 0.624344 17.8588 1.55799C18.7567 2.7627 19.8296 3.8138 21.0598 4.61594C21.9821 5.21728 23.1002 5.79454 24 5.79454M24 5.79454C23.1002 5.79454 21.9812 6.37179 21.0598 6.97314C19.8296 7.77628 18.7567 8.82739 17.8588 10.0301C17.1605 10.9647 16.9412 10.5735 16.9412 11.3164M24 5.79454L1.41176 5.79454" stroke="#EEEEF0" stroke-width="1.5"/>
<path id="Vector_2" d="M7.41176 11.3164C7.41176 10.5714 6.83953 10.7142 6.14118 9.7806C5.24329 8.57589 4.17035 7.52479 2.94024 6.72265C2.01788 6.1213 0.899765 5.54405 0 5.54405M0 5.54405C0.899765 5.54405 2.01882 4.9668 2.94024 4.36545C4.17035 3.56231 5.24329 2.5112 6.14118 1.30851C6.83953 0.373854 7.05882 0.765138 7.05882 0.0222358M0 5.54405L22.5882 5.54405" stroke="#EEEEF0" stroke-width="1.5"/>
</g>
</svg>
