<svg preserveAspectRatio="none" overflow="visible" style="display: block;" width="86.6667" height="23.4283" viewBox="0 0 86.6667 23.4283" fill="none" xmlns="http://www.w3.org/2000/svg">
<g id="Group">
<path id="Vector" d="M57.6633 0V17.0656C59.7554 17.1635 61.8421 17.2819 63.923 17.4216V21.0397C60.6336 20.8191 57.3304 20.6507 54.0135 20.5359V0H57.6633ZM86.6667 0.00202177L81.914 11.0882L86.6655 23.4251L86.6602 23.4275C85.2761 23.2288 83.8903 23.0412 82.5003 22.8614L79.832 15.9372L77.1384 22.2187C75.8619 22.0768 74.5836 21.9427 73.3023 21.8169L77.9356 11.0141L73.6924 0.00202177H77.6407L80.0164 6.16451L82.6581 0.00202177H86.6667ZM41.4871 20.3566L41.487 0.00195635H51.6754V3.6526H45.1369V8.38399H50.0842V12.0021H45.1369V20.3557L41.4871 20.3566ZM27.8586 3.6529L27.8585 0.00176604H39.1473V3.65264H35.3277V20.4556C34.1095 20.4877 32.8926 20.5257 31.6781 20.5718V3.6529H27.8586ZM15.3813 21.6237V0.00237852H25.5189V3.65302H19.0306V8.59811C20.5212 8.57891 22.6407 8.55715 23.9592 8.56036V12.1788C22.3087 12.1581 20.4456 12.2015 19.0306 12.2158V17.6935C21.1871 17.5228 23.3501 17.3735 25.5189 17.2475V20.866C22.1244 21.0627 18.7451 21.3161 15.3813 21.6237ZM8.22166 13.2593L8.22143 0.00178393H11.8713V21.9647C10.537 22.1028 9.20534 22.2498 7.87594 22.4049L3.64963 10.1887V22.9281C2.43069 23.0879 1.21422 23.2544 0 23.4283V0.00202177H3.46856L8.22166 13.2593ZM66.934 21.258V0.00204545H70.5839V21.5613C69.3688 21.4524 68.1526 21.3518 66.934 21.258Z" fill="#161616"/>
</g>
</svg>
